<?xml version="1.0" encoding="UTF-8"?>
<svg width="956px" height="554px" viewBox="0 0 956 554" version="1.1" xmlns="http://www.w3.org/2000/svg" xmlns:xlink="http://www.w3.org/1999/xlink">
    <title>Group</title>
    <g id="Page-1" stroke="none" stroke-width="1" fill="none" fill-rule="evenodd">
        <g id="macro-indicatori---scroll-3-copy" transform="translate(-119.000000, -232.000000)">
            <g id="Group" transform="translate(120.000000, 233.000000)">
                <polygon id="Stroke-358" stroke="#262626" stroke-width="2" points="0 2.37029703 0 285 381 285 381 0 64.2053909 0 0 0"></polygon>
                <polygon id="Stroke-361" stroke="#262626" stroke-width="2" points="393.455054 333.134769 393 552 669 552 669 333 488.699785 333"></polygon>
                <polygon id="Stroke-361-Copy" stroke="#262626" stroke-width="2" points="0.628172043 297.156923 0 552 381 552 381 297 132.107312 297"></polygon>
                <polygon id="Stroke-362" stroke="#262626" stroke-width="2" points="393 0.197538462 393.206722 321 690 321 690 0 445.497464 0"></polygon>
                <polygon id="Stroke-363" stroke="#262626" stroke-width="2" points="681.090497 333.134769 681 552 954 552 954 333 841.240442 333"></polygon>
                <polygon id="Stroke-364" stroke="#262626" stroke-width="2" points="702.104338 0 702.104338 8.93217391 702 321 954 321 954 0 729.214185 0"></polygon>
                <path d="M150.375,150 L150.775,146.25 L152.875,146.25 L153.3,150 L155.575,150 L153.4,133.325 L150.4,133.325 L148.125,150 L150.375,150 Z M152.625,144.075 L151.025,144.075 L151.825,136.35 L152.625,144.075 Z M160.55,150 L160.55,135.5 L162.825,135.5 L162.825,133.325 L156.05,133.325 L156.05,135.5 L158.225,135.5 L158.225,150 L160.55,150 Z M167.675,150 L167.675,135.5 L169.95,135.5 L169.95,133.325 L163.175,133.325 L163.175,135.5 L165.35,135.5 L165.35,150 L167.675,150 Z M173.45,150 L173.45,142.925 C173.8,142.9 173.875,142.9 174.275,142.825 L175.625,150 L178.125,150 L176.5,142.025 C177.475,140.8 177.675,140.075 177.675,137.975 C177.675,136.575 177.475,135.65 177.025,134.85 C176.375,133.7 175.475,133.325 173.4,133.325 L171.125,133.325 L171.125,150 L173.45,150 Z M173.775,140.575 L173.45,140.575 L173.45,135.5 L173.775,135.5 C175.025,135.5 175.4,135.95 175.4,137.525 L175.399081,137.97527 C175.393629,139.144252 175.361842,139.442105 175.25,139.8 C175.075,140.325 174.625,140.575 173.775,140.575 Z M181.75,150 L182.15,146.25 L184.25,146.25 L184.675,150 L186.95,150 L184.775,133.325 L181.775,133.325 L179.5,150 L181.75,150 Z M184,144.075 L182.4,144.075 L183.2,136.35 L184,144.075 Z M191.925,150 L191.925,135.5 L194.2,135.5 L194.2,133.325 L187.425,133.325 L187.425,135.5 L189.6,135.5 L189.6,150 L191.925,150 Z M199.05,150 L199.05,135.5 L201.325,135.5 L201.325,133.325 L194.55,133.325 L194.55,135.5 L196.725,135.5 L196.725,150 L199.05,150 Z M204.825,150 L204.825,133.325 L202.5,133.325 L202.5,150 L204.825,150 Z M210.975,150 L213.4,133.325 L211.175,133.325 L209.85,143.475 L208.45,133.325 L206.15,133.325 L208.675,150 L210.975,150 Z M217.05,150 L217.05,133.325 L214.725,133.325 L214.725,150 L217.05,150 Z M222.725,150 L222.725,135.5 L225,135.5 L225,133.325 L218.225,133.325 L218.225,135.5 L220.4,135.5 L220.4,150 L222.725,150 Z M230.25,132 L229.125,130.125 L226.7,130.125 L228.5,132 L230.25,132 Z M227.675,150 L228.075,146.25 L230.175,146.25 L230.6,150 L232.875,150 L230.7,133.325 L227.7,133.325 L225.425,150 L227.675,150 Z M229.925,144.075 L228.325,144.075 L229.125,136.35 L229.925,144.075 Z" id="ATTRATTIVITÀ" fill="#000000" fill-rule="nonzero"></path>
                <path d="M490.075,452.25 C492.35,452.25 493.45,450.8 493.45,447.825 C493.45,447.375 493.425,446.975 493.4,446.075 L491.075,446.075 C491.1,446.9 491.125,447.3 491.125,447.85 C491.125,449.575 490.875,450.075 490.075,450.075 C489.325,450.075 489.125,449.7 489.125,448.25 L489.125,439.075 C489.125,437.625 489.325,437.25 490.075,437.25 C490.9,437.25 491.125,437.75 491.125,439.6 L491.124219,439.871094 C491.121875,440.121875 491.1125,440.3375 491.075,440.75 L493.4,440.75 C493.438889,440.244444 493.447531,439.965741 493.449451,439.678635 L493.45,439.425 L493.45,439.425 C493.45,436.525 492.325,435.075 490.075,435.075 C487.9,435.075 486.8,436.425 486.8,439.075 L486.8,448.25 C486.8,450.9 487.9,452.25 490.075,452.25 Z M498.625,452.25 C499.8,452.25 500.85,451.725 501.4,450.875 C501.85,450.15 501.925,449.75 501.925,447.75 L501.925,439.55 C501.925,437.575 501.85,437.15 501.4,436.425 C500.85,435.6 499.8,435.075 498.625,435.075 C497.45,435.075 496.4,435.6 495.85,436.425 C495.4,437.15 495.325,437.575 495.325,439.55 L495.325,447.75 C495.325,449.725 495.4,450.15 495.85,450.875 C496.4,451.725 497.45,452.25 498.625,452.25 Z M498.625,450.075 C497.925,450.075 497.65,449.675 497.65,448.725 L497.65,438.6 C497.65,437.65 497.95,437.25 498.625,437.25 C499.325,437.25 499.6,437.65 499.6,438.6 L499.6,448.725 C499.6,449.675 499.3,450.075 498.625,450.075 Z M505.825,452 L505.825,440.225 L507.775,452 L508.775,452 L510.725,440.225 L510.725,452 L512.725,452 L512.725,435.325 L509.925,435.325 L508.275,443.625 L506.625,435.325 L503.875,435.325 L503.875,452 L505.825,452 Z M517.05,452 L517.05,445.225 L517.375,445.225 C518.775,445.225 519.8,444.85 520.4,444.15 C521.1,443.375 521.275,442.525 521.275,440.225 C521.275,438.375 521.125,437.65 520.625,436.775 C519.925,435.625 519.15,435.325 516.925,435.325 L514.725,435.325 L514.725,452 L517.05,452 Z M517.375,443.075 L517.05,443.075 L517.05,437.5 L517.375,437.5 C518.225,437.5 518.7,437.75 518.875,438.3 C518.95,438.575 519.025,439.45 519.025,440.275 C519.025,441.125 518.95,442 518.875,442.275 C518.7,442.825 518.225,443.075 517.375,443.075 Z M528.775,452 L528.775,449.825 L525.275,449.825 L525.275,444.35 L527.575,444.35 L527.575,442.175 L525.275,442.175 L525.275,437.5 L528.575,437.5 L528.575,435.325 L522.95,435.325 L522.95,452 L528.775,452 Z M533.975,452 L533.975,437.5 L536.25,437.5 L536.25,435.325 L529.475,435.325 L529.475,437.5 L531.65,437.5 L531.65,452 L533.975,452 Z M539.75,452 L539.75,435.325 L537.425,435.325 L537.425,452 L539.75,452 Z M547.9,452 L547.9,449.825 L543.75,449.825 L547.9,437.5 L547.9,435.325 L541.9,435.325 L541.9,437.5 L545.575,437.5 L541.425,449.825 L541.425,452 L547.9,452 Z M551.9,452 L551.9,435.325 L549.575,435.325 L549.575,452 L551.9,452 Z M557.175,452.25 C558.35,452.25 559.4,451.725 559.95,450.875 C560.4,450.15 560.475,449.75 560.475,447.75 L560.475,439.55 C560.475,437.575 560.4,437.15 559.95,436.425 C559.4,435.6 558.35,435.075 557.175,435.075 C556,435.075 554.95,435.6 554.4,436.425 C553.95,437.15 553.875,437.575 553.875,439.55 L553.875,447.75 C553.875,449.725 553.95,450.15 554.4,450.875 C554.95,451.725 556,452.25 557.175,452.25 Z M557.175,450.075 C556.475,450.075 556.2,449.675 556.2,448.725 L556.2,438.6 C556.2,437.65 556.5,437.25 557.175,437.25 C557.875,437.25 558.15,437.65 558.15,438.6 L558.15,448.725 C558.15,449.675 557.85,450.075 557.175,450.075 Z M564.75,452 L564.75,443.25 L567.5,452 L569.825,452 L569.825,435.325 L567.5,435.325 L567.5,445.15 L564.425,435.325 L562.425,435.325 L562.425,452 L564.75,452 Z M577.65,452 L577.65,449.825 L574.15,449.825 L574.15,444.35 L576.45,444.35 L576.45,442.175 L574.15,442.175 L574.15,437.5 L577.45,437.5 L577.45,435.325 L571.825,435.325 L571.825,452 L577.65,452 Z" id="COMPETIZIONE" fill="#000000" fill-rule="nonzero"></path>
                <path d="M163.7875,433 L163.7875,421.225 L165.7375,433 L166.7375,433 L168.6875,421.225 L168.6875,433 L170.6875,433 L170.6875,416.325 L167.8875,416.325 L166.2375,424.625 L164.5875,416.325 L161.8375,416.325 L161.8375,433 L163.7875,433 Z M175.9625,433.25 C177.1375,433.25 178.1875,432.725 178.7375,431.875 C179.167935,431.181522 179.255269,430.785397 179.26205,429.001954 L179.2625,420.55 C179.2625,418.575 179.1875,418.15 178.7375,417.425 C178.1875,416.6 177.1375,416.075 175.9625,416.075 C174.7875,416.075 173.7375,416.6 173.1875,417.425 C172.757065,418.118478 172.669731,418.537476 172.66295,420.301029 L172.6625,428.75 C172.6625,430.725 172.7375,431.15 173.1875,431.875 C173.7375,432.725 174.7875,433.25 175.9625,433.25 Z M175.9625,431.075 C175.2625,431.075 174.9875,430.675 174.9875,429.725 L174.9875,419.6 C174.9875,418.65 175.2875,418.25 175.9625,418.25 C176.6625,418.25 176.9375,418.65 176.9375,419.6 L176.9375,429.725 C176.9375,430.675 176.6375,431.075 175.9625,431.075 Z M183.5375,433 C185.3875,433 186.4625,432.65 187.1875,431.8 C187.8375,431.025 188.0625,430.1 188.0625,428.1 C188.0625,425.7 187.6125,424.75 186.2625,424.225 C187.4125,423.5 187.7625,422.625 187.7625,420.5 C187.7625,419 187.4625,418.05 186.7375,417.325 C185.9125,416.5 185.3125,416.325 183.3125,416.325 L181.2125,416.325 L181.2125,433 L183.5375,433 Z M183.8625,423.25 L183.5375,423.25 L183.5375,418.5 L183.8625,418.5 C185.0875,418.5 185.4875,418.975 185.4875,420.475 C185.4875,421.7 185.4625,422.1 185.3375,422.45 C185.1625,423 184.7125,423.25 183.8625,423.25 Z M183.7625,430.825 L183.5375,430.825 L183.5375,425.425 L183.7625,425.425 C185.3875,425.425 185.7375,425.9 185.7375,428.125 C185.7375,430.35 185.3875,430.825 183.7625,430.825 Z M192.3125,433 L192.3125,416.325 L189.9875,416.325 L189.9875,433 L192.3125,433 Z M199.9375,433 L199.9375,430.825 L196.6375,430.825 L196.6375,416.325 L194.3125,416.325 L194.3125,433 L199.9375,433 Z M203.6625,433 L203.6625,416.325 L201.3375,416.325 L201.3375,433 L203.6625,433 Z M209.3375,433 L209.3375,418.5 L211.6125,418.5 L211.6125,416.325 L204.8375,416.325 L204.8375,418.5 L207.0125,418.5 L207.0125,433 L209.3375,433 Z M216.8625,415 L215.7375,413.125 L213.3125,413.125 L215.1125,415 L216.8625,415 Z M214.2875,433 L214.6875,429.25 L216.7875,429.25 L217.2125,433 L219.4875,433 L217.3125,416.325 L214.3125,416.325 L212.0375,433 L214.2875,433 Z M216.5375,427.075 L214.9375,427.075 L215.7375,419.35 L216.5375,427.075 Z" id="MOBILITÀ" fill="#000000" fill-rule="nonzero"></path>
                <path d="M784.7,169 L784.7,152.325 L782.375,152.325 L782.375,169 L784.7,169 Z M789.025,169 L789.025,160.25 L791.775,169 L794.1,169 L794.1,152.325 L791.775,152.325 L791.775,162.15 L788.7,152.325 L786.7,152.325 L786.7,169 L789.025,169 Z M798.425,169 L798.425,160.25 L801.175,169 L803.5,169 L803.5,152.325 L801.175,152.325 L801.175,162.15 L798.1,152.325 L796.1,152.325 L796.1,169 L798.425,169 Z M808.775,169.25 C809.95,169.25 811,168.725 811.55,167.875 C812,167.15 812.075,166.75 812.075,164.75 L812.075,156.55 C812.075,154.575 812,154.15 811.55,153.425 C811,152.6 809.95,152.075 808.775,152.075 C807.6,152.075 806.55,152.6 806,153.425 C805.569565,154.118478 805.482231,154.537476 805.47545,156.301029 L805.475,164.75 C805.475,166.725 805.55,167.15 806,167.875 C806.55,168.725 807.6,169.25 808.775,169.25 Z M808.775,167.075 C808.075,167.075 807.8,166.675 807.8,165.725 L807.8,155.6 C807.8,154.65 808.1,154.25 808.775,154.25 C809.475,154.25 809.75,154.65 809.75,155.6 L809.75,165.725 C809.75,166.675 809.45,167.075 808.775,167.075 Z M818.3,169 L820.725,152.325 L818.5,152.325 L817.175,162.475 L815.775,152.325 L813.475,152.325 L816,169 L818.3,169 Z M823.325,169 L823.725,165.25 L825.825,165.25 L826.25,169 L828.525,169 L826.35,152.325 L823.35,152.325 L821.075,169 L823.325,169 Z M825.575,163.075 L823.975,163.075 L824.775,155.35 L825.575,163.075 Z M836.35,169 L836.35,166.825 L832.2,166.825 L836.35,154.5 L836.35,152.325 L830.35,152.325 L830.35,154.5 L834.025,154.5 L829.875,166.825 L829.875,169 L836.35,169 Z M840.35,169 L840.35,152.325 L838.025,152.325 L838.025,169 L840.35,169 Z M845.625,169.25 C846.8,169.25 847.85,168.725 848.4,167.875 C848.85,167.15 848.925,166.75 848.925,164.75 L848.925,156.55 C848.925,154.575 848.85,154.15 848.4,153.425 C847.85,152.6 846.8,152.075 845.625,152.075 C844.45,152.075 843.4,152.6 842.85,153.425 C842.419565,154.118478 842.332231,154.537476 842.32545,156.301029 L842.325,164.75 C842.325,166.725 842.4,167.15 842.85,167.875 C843.4,168.725 844.45,169.25 845.625,169.25 Z M845.625,167.075 C844.925,167.075 844.65,166.675 844.65,165.725 L844.65,155.6 C844.65,154.65 844.95,154.25 845.625,154.25 C846.325,154.25 846.6,154.65 846.6,155.6 L846.6,165.725 C846.6,166.675 846.3,167.075 845.625,167.075 Z M853.2,169 L853.2,160.25 L855.95,169 L858.275,169 L858.275,152.325 L855.95,152.325 L855.95,162.15 L852.875,152.325 L850.875,152.325 L850.875,169 L853.2,169 Z M866.1,169 L866.1,166.825 L862.6,166.825 L862.6,161.35 L864.9,161.35 L864.9,159.175 L862.6,159.175 L862.6,154.5 L865.9,154.5 L865.9,152.325 L860.275,152.325 L860.275,169 L866.1,169 Z" id="INNOVAZIONE" fill="#000000" fill-rule="nonzero"></path>
                <path d="M509.125,169 L509.125,161.925 C509.475,161.9 509.55,161.9 509.95,161.825 L511.3,169 L513.8,169 L512.175,161.025 C513.15,159.8 513.35,159.075 513.35,156.975 C513.35,155.575 513.15,154.65 512.7,153.85 C512.05,152.7 511.15,152.325 509.075,152.325 L506.8,152.325 L506.8,169 L509.125,169 Z M509.45,159.575 L509.125,159.575 L509.125,154.5 L509.45,154.5 C510.7,154.5 511.075,154.95 511.075,156.525 L511.074081,156.97527 C511.068629,158.144252 511.036842,158.442105 510.925,158.8 C510.75,159.325 510.3,159.575 509.45,159.575 Z M517.825,169 L517.825,152.325 L515.5,152.325 L515.5,169 L517.825,169 Z M523.075,169.25 C525.35,169.25 526.45,167.8 526.45,164.825 C526.45,164.375 526.425,163.975 526.4,163.075 L524.075,163.075 C524.1,163.9 524.125,164.3 524.125,164.85 C524.125,166.575 523.875,167.075 523.075,167.075 C522.325,167.075 522.125,166.7 522.125,165.25 L522.125,156.075 C522.125,154.625 522.325,154.25 523.075,154.25 C523.9,154.25 524.125,154.75 524.125,156.6 C524.125,157 524.125,157.2 524.075,157.75 L526.4,157.75 C526.45,157.1 526.45,156.825 526.45,156.425 C526.45,153.525 525.325,152.075 523.075,152.075 C520.9,152.075 519.8,153.425 519.8,156.075 L519.8,165.25 C519.8,167.9 520.9,169.25 523.075,169.25 Z M531.575,169.25 C533.85,169.25 534.95,167.8 534.95,164.825 C534.95,164.375 534.925,163.975 534.9,163.075 L532.575,163.075 C532.6,163.9 532.625,164.3 532.625,164.85 C532.625,166.575 532.375,167.075 531.575,167.075 C530.825,167.075 530.625,166.7 530.625,165.25 L530.625,156.075 C530.625,154.625 530.825,154.25 531.575,154.25 C532.4,154.25 532.625,154.75 532.625,156.6 C532.625,157 532.625,157.2 532.575,157.75 L534.9,157.75 C534.95,157.1 534.95,156.825 534.95,156.425 C534.95,153.525 533.825,152.075 531.575,152.075 C529.4,152.075 528.3,153.425 528.3,156.075 L528.3,165.25 C528.3,167.9 529.4,169.25 531.575,169.25 Z M539.175,169 L539.175,161.35 L541.075,161.35 L541.075,169 L543.4,169 L543.4,152.325 L541.075,152.325 L541.075,159.175 L539.175,159.175 L539.175,152.325 L536.85,152.325 L536.85,169 L539.175,169 Z M551.225,169 L551.225,166.825 L547.725,166.825 L547.725,161.35 L550.025,161.35 L550.025,159.175 L547.725,159.175 L547.725,154.5 L551.025,154.5 L551.025,152.325 L545.4,152.325 L545.4,169 L551.225,169 Z M558.9,169 L558.9,166.825 L554.75,166.825 L558.9,154.5 L558.9,152.325 L552.9,152.325 L552.9,154.5 L556.575,154.5 L552.425,166.825 L552.425,169 L558.9,169 Z M566.725,169 L566.725,166.825 L562.575,166.825 L566.725,154.5 L566.725,152.325 L560.725,152.325 L560.725,154.5 L564.4,154.5 L560.25,166.825 L560.25,169 L566.725,169 Z M570.325,169 L570.725,165.25 L572.825,165.25 L573.25,169 L575.525,169 L573.35,152.325 L570.35,152.325 L568.075,169 L570.325,169 Z M572.575,163.075 L570.975,163.075 L571.775,155.35 L572.575,163.075 Z" id="RICCHEZZA" fill="#000000" fill-rule="nonzero"></path>
                <path d="M783.1375,452.25 C785.2875,452.25 786.5125,451 786.5125,448.775 C786.5125,447.35 785.9125,445.65 784.8375,444.075 L783.6625,442.375 C782.1125,440.05 782.0125,439.825 782.0125,438.8 C782.0125,437.8 782.3625,437.25 782.9875,437.25 C783.5125,437.25 783.8875,437.625 783.9625,438.3 C784.0125,438.65 784.0375,438.95 784.0375,439.8 L786.3125,439.575 L786.312296,439.140673 C786.31077,438.17474 786.297794,438.051471 786.1875,437.5 C785.8625,435.975 784.7125,435.075 783.1375,435.075 C781.0625,435.075 779.7125,436.475 779.7125,438.675 C779.7125,440.15 780.1625,441.3 781.6125,443.45 L782.7625,445.15 C783.9125,446.675 784.1875,447.325 784.1875,448.425 C784.1875,449.5 783.8375,450.075 783.1375,450.075 C782.2125,450.075 781.9375,449.525 781.9375,447.75 L781.9375,447.075 L779.6375,447.175 C779.6125,447.575 779.6125,447.725 779.6125,448.075 C779.6125,449.525 779.7875,450.225 780.3375,450.975 C780.9875,451.85 781.8625,452.25 783.1375,452.25 Z M790.4125,452 L790.4125,435.325 L788.0875,435.325 L788.0875,452 L790.4125,452 Z M795.6625,452.25 C797.9375,452.25 799.0375,450.8 799.0375,447.825 C799.0375,447.375 799.0125,446.975 798.9875,446.075 L796.6625,446.075 C796.6875,446.9 796.7125,447.3 796.7125,447.85 C796.7125,449.575 796.4625,450.075 795.6625,450.075 C794.9125,450.075 794.7125,449.7 794.7125,448.25 L794.7125,439.075 C794.7125,437.625 794.9125,437.25 795.6625,437.25 C796.4875,437.25 796.7125,437.75 796.7125,439.6 C796.7125,440 796.7125,440.2 796.6625,440.75 L798.9875,440.75 C799.0375,440.1 799.0375,439.825 799.0375,439.425 C799.0375,436.525 797.9125,435.075 795.6625,435.075 C793.4875,435.075 792.3875,436.425 792.3875,439.075 L792.3875,448.25 C792.3875,450.9 793.4875,452.25 795.6625,452.25 Z M804.2125,452.25 C805.3875,452.25 806.4375,451.725 806.9875,450.9 C807.417935,450.206522 807.505269,449.787524 807.51205,448.023971 L807.5125,435.325 L805.1875,435.325 L805.1875,448.725 C805.1875,449.675 804.9125,450.075 804.2125,450.075 C803.5375,450.075 803.2375,449.675 803.2375,448.725 L803.2375,435.325 L800.9125,435.325 L800.9125,447.775 C800.9125,449.75 800.9875,450.175 801.4375,450.9 C801.9875,451.725 803.0375,452.25 804.2125,452.25 Z M811.8375,452 L811.8375,444.925 C812.1875,444.9 812.2625,444.9 812.6625,444.825 L814.0125,452 L816.5125,452 L814.8875,444.025 C815.8625,442.8 816.0625,442.075 816.0625,439.975 C816.0625,438.575 815.8625,437.65 815.4125,436.85 C814.7625,435.7 813.8625,435.325 811.7875,435.325 L809.5125,435.325 L809.5125,452 L811.8375,452 Z M812.1625,442.575 L811.8375,442.575 L811.8375,437.5 L812.1625,437.5 C813.4125,437.5 813.7875,437.95 813.7875,439.525 C813.7875,441.075 813.7625,441.4 813.6375,441.8 C813.4625,442.325 813.0125,442.575 812.1625,442.575 Z M824.0375,452 L824.0375,449.825 L820.5375,449.825 L820.5375,444.35 L822.8375,444.35 L822.8375,442.175 L820.5375,442.175 L820.5375,437.5 L823.8375,437.5 L823.8375,435.325 L818.2125,435.325 L818.2125,452 L824.0375,452 Z M831.7125,452 L831.7125,449.825 L827.5625,449.825 L831.7125,437.5 L831.7125,435.325 L825.7125,435.325 L825.7125,437.5 L829.3875,437.5 L825.2375,449.825 L825.2375,452 L831.7125,452 Z M839.5375,452 L839.5375,449.825 L835.3875,449.825 L839.5375,437.5 L839.5375,435.325 L833.5375,435.325 L833.5375,437.5 L837.2125,437.5 L833.0625,449.825 L833.0625,452 L839.5375,452 Z M843.1375,452 L843.5375,448.25 L845.6375,448.25 L846.0625,452 L848.3375,452 L846.1625,435.325 L843.1625,435.325 L840.8875,452 L843.1375,452 Z M845.3875,446.075 L843.7875,446.075 L844.5875,438.35 L845.3875,446.075 Z" id="SICUREZZA" fill="#000000" fill-rule="nonzero"></path>
            </g>
        </g>
    </g>
</svg>