<?xml version="1.0" encoding="UTF-8"?>
<svg width="956px" height="554px" viewBox="0 0 956 554" version="1.1" xmlns="http://www.w3.org/2000/svg" xmlns:xlink="http://www.w3.org/1999/xlink">
    <title>Group</title>
    <g id="Page-1" stroke="none" stroke-width="1" fill="none" fill-rule="evenodd">
        <g id="macro-indicatori---scroll-4-copy" transform="translate(-119.000000, -232.000000)">
            <g id="Group" transform="translate(120.000000, 233.000000)">
                <g id="Group-2" transform="translate(5.000000, 301.000000)">
                    <polygon id="Fill-205" fill="#517CFE" points="302 247 342 247 342 204 302 204"></polygon>
                    <polygon id="Fill-213" fill="#517CFE" points="234 247 299 247 299 204 234 204"></polygon>
                    <polygon id="Fill-217" fill="#517CFE" points="330 201 371 201 371 113 330 113"></polygon>
                    <polygon id="Fill-221" fill="#517CFE" points="303.636856 109 370.636856 109 370.636856 0 303.636856 0"></polygon>
                    <polygon id="Fill-225" fill="#517CFE" points="0 85 138 85 138 0 0 0"></polygon>
                    <polygon id="Fill-229" fill="#517CFE" points="141 247 231 247 231 192 141 192"></polygon>
                    <polygon id="Fill-233" fill="#517CFE" points="141 110 222 110 222 0 141 0"></polygon>
                    <polygon id="Fill-241" fill="#517CFE" points="345 247 371 247 371 204 345 204"></polygon>
                    <polygon id="Fill-245" fill="#517CFE" points="0 247 138 247 138 173 0 173"></polygon>
                    <polygon id="Fill-249" fill="#517CFE" points="141 189 231 189 231 113 141 113"></polygon>
                    <polygon id="Fill-257" fill="#517CFE" points="0 170 138 170 138 88 0 88"></polygon>
                    <polygon id="Fill-209" fill="#FE5E83" points="225 110 301 110 301 0 225 0"></polygon>
                    <polygon id="Fill-237" fill="#FE5E83" points="234 201 282 201 282 113 234 113"></polygon>
                    <polygon id="Fill-253" fill="#FE5E83" points="285 201 327 201 327 113 285 113"></polygon>
                </g>
                <polygon id="Stroke-358" stroke="#262626" stroke-width="2" points="0 2.37029703 0 285 381 285 381 0 64.2053909 0 0 0"></polygon>
                <polygon id="Stroke-361" stroke="#262626" stroke-width="2" points="393.455054 333.134769 393 552 669 552 669 333 488.699785 333"></polygon>
                <polygon id="Stroke-361-Copy" stroke="#262626" stroke-width="2" points="0.628172043 297.156923 0 552 381 552 381 297 132.107312 297"></polygon>
                <polygon id="Stroke-362" stroke="#262626" stroke-width="2" points="393 0.197538462 393.206722 321 690 321 690 0 445.497464 0"></polygon>
                <polygon id="Stroke-363" stroke="#262626" stroke-width="2" points="681.090497 333.134769 681 552 954 552 954 333 841.240442 333"></polygon>
                <polygon id="Stroke-364" stroke="#262626" stroke-width="2" points="702.104338 0 702.104338 8.93217391 702 321 954 321 954 0 729.214185 0"></polygon>
                <path d="M163.7875,438 L163.7875,426.225 L165.7375,438 L166.7375,438 L168.6875,426.225 L168.6875,438 L170.6875,438 L170.6875,421.325 L167.8875,421.325 L166.2375,429.625 L164.5875,421.325 L161.8375,421.325 L161.8375,438 L163.7875,438 Z M175.9625,438.25 C177.1375,438.25 178.1875,437.725 178.7375,436.875 C179.167935,436.181522 179.255269,435.785397 179.26205,434.001954 L179.2625,425.55 C179.2625,423.575 179.1875,423.15 178.7375,422.425 C178.1875,421.6 177.1375,421.075 175.9625,421.075 C174.7875,421.075 173.7375,421.6 173.1875,422.425 C172.757065,423.118478 172.669731,423.537476 172.66295,425.301029 L172.6625,433.75 C172.6625,435.725 172.7375,436.15 173.1875,436.875 C173.7375,437.725 174.7875,438.25 175.9625,438.25 Z M175.9625,436.075 C175.2625,436.075 174.9875,435.675 174.9875,434.725 L174.9875,424.6 C174.9875,423.65 175.2875,423.25 175.9625,423.25 C176.6625,423.25 176.9375,423.65 176.9375,424.6 L176.9375,434.725 C176.9375,435.675 176.6375,436.075 175.9625,436.075 Z M183.5375,438 C185.3875,438 186.4625,437.65 187.1875,436.8 C187.8375,436.025 188.0625,435.1 188.0625,433.1 C188.0625,430.7 187.6125,429.75 186.2625,429.225 C187.4125,428.5 187.7625,427.625 187.7625,425.5 C187.7625,424 187.4625,423.05 186.7375,422.325 C185.9125,421.5 185.3125,421.325 183.3125,421.325 L181.2125,421.325 L181.2125,438 L183.5375,438 Z M183.8625,428.25 L183.5375,428.25 L183.5375,423.5 L183.8625,423.5 C185.0875,423.5 185.4875,423.975 185.4875,425.475 C185.4875,426.7 185.4625,427.1 185.3375,427.45 C185.1625,428 184.7125,428.25 183.8625,428.25 Z M183.7625,435.825 L183.5375,435.825 L183.5375,430.425 L183.7625,430.425 C185.3875,430.425 185.7375,430.9 185.7375,433.125 C185.7375,435.35 185.3875,435.825 183.7625,435.825 Z M192.3125,438 L192.3125,421.325 L189.9875,421.325 L189.9875,438 L192.3125,438 Z M199.9375,438 L199.9375,435.825 L196.6375,435.825 L196.6375,421.325 L194.3125,421.325 L194.3125,438 L199.9375,438 Z M203.6625,438 L203.6625,421.325 L201.3375,421.325 L201.3375,438 L203.6625,438 Z M209.3375,438 L209.3375,423.5 L211.6125,423.5 L211.6125,421.325 L204.8375,421.325 L204.8375,423.5 L207.0125,423.5 L207.0125,438 L209.3375,438 Z M216.8625,420 L215.7375,418.125 L213.3125,418.125 L215.1125,420 L216.8625,420 Z M214.2875,438 L214.6875,434.25 L216.7875,434.25 L217.2125,438 L219.4875,438 L217.3125,421.325 L214.3125,421.325 L212.0375,438 L214.2875,438 Z M216.5375,432.075 L214.9375,432.075 L215.7375,424.35 L216.5375,432.075 Z" id="MOBILITÀ" fill="#151515" fill-rule="nonzero"></path>
                <polygon id="Fill-29" fill="#517CFE" points="527 221 588 221 588 193 527 193"></polygon>
                <polygon id="Fill-33" fill="#517CFE" points="651 134 686 134 686 72 651 72"></polygon>
                <polygon id="Fill-37" fill="#517CFE" points="437 69 474 69 474 4 437 4"></polygon>
                <polygon id="Fill-41" fill="#517CFE" points="637 275 662 275 662 245 637 245"></polygon>
                <polygon id="Fill-45" fill="#517CFE" points="614 134 648 134 648 72 614 72"></polygon>
                <polygon id="Fill-49" fill="#517CFE" points="591 298 634 298 634 278 591 278"></polygon>
                <polygon id="Fill-53" fill="#517CFE" points="527 317 588 317 588 286 527 286"></polygon>
                <polygon id="Fill-57" fill="#517CFE" points="527 283 588 283 588 255 527 255"></polygon>
                <polygon id="Fill-61" fill="#517CFE" points="462 244 524 244 524 211 462 211"></polygon>
                <polygon id="Fill-65" fill="#517CFE" points="462 280 524 280 524 247 462 247"></polygon>
                <polygon id="Fill-69" fill="#517CFE" points="397 233 458 233 458 195 397 195"></polygon>
                <polygon id="Fill-73" fill="#517CFE" points="397 317 458 317 458 278 397 278"></polygon>
                <polygon id="Fill-77" fill="#517CFE" points="647 69 686 69 686 4 647 4"></polygon>
                <polygon id="Fill-81" fill="#517CFE" points="591 275 634 275 634 245 591 245"></polygon>
                <polygon id="Fill-85" fill="#517CFE" points="527 190 562 190 562 137 527 137"></polygon>
                <polygon id="Fill-89" fill="#517CFE" points="604 190 646 190 646 137 604 137"></polygon>
                <polygon id="Fill-93" fill="#517CFE" points="527 252 588 252 588 224 527 224"></polygon>
                <polygon id="Fill-97" fill="#517CFE" points="462 208 524 208 524 174 462 174"></polygon>
                <polygon id="Fill-105" fill="#517CFE" points="637 317 664 317 664 298 637 298"></polygon>
                <polygon id="Fill-109" fill="#517CFE" points="397 275 458 275 458 236 397 236"></polygon>
                <polygon id="Fill-113" fill="#517CFE" points="572 134 611 134 611 72 572 72"></polygon>
                <polygon id="Fill-117" fill="#517CFE" points="461 134 495 134 495 72 461 72"></polygon>
                <polygon id="Fill-121" fill="#517CFE" points="397 110 458 110 458 72 397 72"></polygon>
                <polygon id="Fill-125" fill="#517CFE" points="597 69 644 69 644 4 597 4"></polygon>
                <polygon id="Fill-129" fill="#517CFE" points="667 301 685 301 685 278 667 278"></polygon>
                <polygon id="Fill-137" fill="#517CFE" points="667 317 685 317 685 304 667 304"></polygon>
                <polygon id="Fill-141" fill="#517CFE" points="649 190 685 190 685 137 649 137"></polygon>
                <polygon id="Fill-145" fill="#517CFE" points="397 69 434 69 434 4 397 4"></polygon>
                <polygon id="Fill-149" fill="#517CFE" points="477 69 514 69 514 4 477 4"></polygon>
                <polygon id="Fill-169" fill="#517CFE" points="517 69 554 69 554 4 517 4"></polygon>
                <polygon id="Fill-173" fill="#517CFE" points="591 242 625 242 625 193 591 193"></polygon>
                <polygon id="Fill-177" fill="#517CFE" points="397 192 458 192 458 154 397 154"></polygon>
                <polygon id="Fill-185" fill="#517CFE" points="535 134 569 134 569 72 535 72"></polygon>
                <polygon id="Fill-189" fill="#517CFE" points="659 242 685 242 685 193 659 193"></polygon>
                <polygon id="Fill-197" fill="#517CFE" points="637 295 664 295 664 278 637 278"></polygon>
                <polygon id="Fill-201" fill="#517CFE" points="628 242 656 242 656 193 628 193"></polygon>
                <polygon id="Fill-101" fill="#FE5E83" points="665 275 685 275 685 245 665 245"></polygon>
                <polygon id="Fill-133" fill="#FE5E83" points="462 317 524 317 524 283 462 283"></polygon>
                <polygon id="Fill-153" fill="#FE5E83" points="565 190 601 190 601 137 565 137"></polygon>
                <polygon id="Fill-157" fill="#FE5E83" points="397 151 458 151 458 113 397 113"></polygon>
                <polygon id="Fill-161" fill="#FE5E83" points="557 69 594 69 594 4 557 4"></polygon>
                <polygon id="Fill-165" fill="#FE5E83" points="498 134 532 134 532 72 498 72"></polygon>
                <polygon id="Fill-181" fill="#FE5E83" points="462 171 524 171 524 137 462 137"></polygon>
                <polygon id="Fill-193" fill="#FE5E83" points="591 317 634 317 634 301 591 301"></polygon>
                <polygon id="Fill-261" fill="#517CFE" points="866 58 903 58 903 4 866 4"></polygon>
                <polygon id="Fill-265" fill="#517CFE" points="706 317 760 317 760 283 706 283"></polygon>
                <polygon id="Fill-269" fill="#517CFE" points="763 317 815 317 815 290 763 290"></polygon>
                <polygon id="Fill-273" fill="#517CFE" points="706 246 760 246 760 215 706 215"></polygon>
                <polygon id="Fill-277" fill="#517CFE" points="877 158 911 158 911 113 877 113"></polygon>
                <polygon id="Fill-281" fill="#517CFE" points="925 317 950 317 950 301 925 301"></polygon>
                <polygon id="Fill-285" fill="#517CFE" points="818 203 849 203 849 161 818 161"></polygon>
                <polygon id="Fill-289" fill="#517CFE" points="763 158 797 158 797 113 763 113"></polygon>
                <polygon id="Fill-293" fill="#517CFE" points="886 203 917 203 917 161 886 161"></polygon>
                <polygon id="Fill-297" fill="#517CFE" points="903 274 922 274 922 247 903 247"></polygon>
                <polygon id="Fill-301" fill="#517CFE" points="818 290 864 290 864 264 818 264"></polygon>
                <polygon id="Fill-305" fill="#517CFE" points="706 178 760 178 760 147 706 147"></polygon>
                <polygon id="Fill-309" fill="#517CFE" points="763 222 815 222 815 193 763 193"></polygon>
                <polygon id="Fill-313" fill="#517CFE" points="746 58 783 58 783 4 746 4"></polygon>
                <polygon id="Fill-317" fill="#517CFE" points="786 58 823 58 823 4 786 4"></polygon>
                <polygon id="Fill-321" fill="#517CFE" points="706 280 760 280 760 249 706 249"></polygon>
                <polygon id="Fill-325" fill="#517CFE" points="903 297 922 297 922 277 903 277"></polygon>
                <polygon id="Fill-329" fill="#517CFE" points="867 269 900 269 900 247 867 247"></polygon>
                <polygon id="Fill-333" fill="#517CFE" points="874 110 913 110 913 61 874 61"></polygon>
                <polygon id="Fill-337" fill="#517CFE" points="920 203 950 203 950 161 920 161"></polygon>
                <polygon id="Fill-341" fill="#517CFE" points="763 286 815 286 815 257 763 257"></polygon>
                <polygon id="Fill-345" fill="#517CFE" points="706 58 743 58 743 4 706 4"></polygon>
                <polygon id="Fill-349" fill="#517CFE" points="748 110 787 110 787 61 748 61"></polygon>
                <polygon id="Fill-361" fill="#517CFE" points="837 158 874 158 874 113 837 113"></polygon>
                <polygon id="Fill-369" fill="#517CFE" points="800 158 834 158 834 113 800 113"></polygon>
                <polygon id="Fill-373" fill="#517CFE" points="763 190 815 190 815 161 763 161"></polygon>
                <polygon id="Fill-377" fill="#517CFE" points="790 110 829 110 829 61 790 61"></polygon>
                <polygon id="Fill-381" fill="#517CFE" points="763 254 815 254 815 225 763 225"></polygon>
                <polygon id="Fill-385" fill="#517CFE" points="925 274 950 274 950 247 925 247"></polygon>
                <polygon id="Fill-389" fill="#517CFE" points="893 244 916 244 916 206 893 206"></polygon>
                <polygon id="Fill-393" fill="#517CFE" points="914 158 950 158 950 113 914 113"></polygon>
                <polygon id="Fill-397" fill="#517CFE" points="818 261 864 261 864 235 818 235"></polygon>
                <polygon id="Fill-401" fill="#517CFE" points="919 244 950 244 950 206 919 206"></polygon>
                <polygon id="Fill-405" fill="#517CFE" points="867 317 900 317 900 293 867 293"></polygon>
                <polygon id="Fill-409" fill="#517CFE" points="706 144 760 144 760 113 706 113"></polygon>
                <polygon id="Fill-413" fill="#517CFE" points="706 110 745 110 745 61 706 61"></polygon>
                <polygon id="Fill-417" fill="#517CFE" points="867 289 900 289 900 272 867 272"></polygon>
                <polygon id="Fill-421" fill="#517CFE" points="925 297 950 297 950 277 925 277"></polygon>
                <polygon id="Fill-425" fill="#517CFE" points="706 212 760 212 760 181 706 181"></polygon>
                <polygon id="Fill-429" fill="#517CFE" points="818 232 864 232 864 206 818 206"></polygon>
                <polygon id="Fill-433" fill="#517CFE" points="867 244 890 244 890 206 867 206"></polygon>
                <polygon id="Fill-437" fill="#517CFE" points="826 58 863 58 863 4 826 4"></polygon>
                <polygon id="Fill-353" fill="#FE5E83" points="905 58 950 58 950 4 905 4"></polygon>
                <polygon id="Fill-357" fill="#FE5E83" points="916 110 950 110 950 61 916 61"></polygon>
                <polygon id="Fill-365" fill="#FE5E83" points="832 110 871 110 871 61 832 61"></polygon>
                <polygon id="Fill-441" fill="#FE5E83" points="903 317 922 317 922 301 903 301"></polygon>
                <polygon id="Fill-445" fill="#FE5E83" points="818 317 864 317 864 294 818 294"></polygon>
                <polygon id="Fill-449" fill="#FE5E83" points="852 203 883 203 883 161 852 161"></polygon>
                <polygon id="Fill-469" fill="#517CFE" points="342 247 359 247 359 227 342 227"></polygon>
                <polygon id="Fill-473" fill="#517CFE" points="210 106 242 106 242 59 210 59"></polygon>
                <polygon id="Fill-477" fill="#517CFE" points="79 122 135 122 135 92 79 92"></polygon>
                <polygon id="Fill-481" fill="#517CFE" points="79 250 135 250 135 222 79 222"></polygon>
                <polygon id="Fill-485" fill="#517CFE" points="369 272 376 272 376 250 369 250"></polygon>
                <polygon id="Fill-489" fill="#517CFE" points="79 56 115 56 115 4 79 4"></polygon>
                <polygon id="Fill-493" fill="#517CFE" points="225 154 254 154 254 109 225 109"></polygon>
                <polygon id="Fill-497" fill="#517CFE" points="195 56 230 56 230 4 195 4"></polygon>
                <polygon id="Fill-501" fill="#517CFE" points="285 244 316 244 316 227 285 227"></polygon>
                <polygon id="Fill-505" fill="#517CFE" points="4 85 76 85 76 59 4 59"></polygon>
                <polygon id="Fill-509" fill="#517CFE" points="138 196 190 196 190 170 138 170"></polygon>
                <polygon id="Fill-517" fill="#517CFE" points="138 106 172 106 172 59 138 59"></polygon>
                <polygon id="Fill-533" fill="#517CFE" points="138 136 190 136 190 109 138 109"></polygon>
                <polygon id="Fill-645" fill="#517CFE" points="138 281 190 281 190 257 138 257"></polygon>
                <polygon id="Fill-673" fill="#517CFE" points="138 254 190 254 190 228 138 228"></polygon>
                <polygon id="Fill-741" fill="#517CFE" points="138 225 190 225 190 199 138 199"></polygon>
                <polygon id="Fill-761" fill="#FE5E83" points="138 167 190 167 190 139 138 139"></polygon>
                <polygon id="Fill-513" fill="#517CFE" points="233 56 267 56 267 4 233 4"></polygon>
                <polygon id="Fill-525" fill="#517CFE" points="4 198 76 198 76 173 4 173"></polygon>
                <polygon id="Fill-537" fill="#517CFE" points="362 247 376 247 376 227 362 227"></polygon>
                <polygon id="Fill-541" fill="#517CFE" points="310 224 332 224 332 197 310 197"></polygon>
                <polygon id="Fill-545" fill="#517CFE" points="193 232 242 232 242 209 193 209"></polygon>
                <polygon id="Fill-549" fill="#517CFE" points="280 106 312 106 312 59 280 59"></polygon>
                <polygon id="Fill-565" fill="#517CFE" points="257 154 285 154 285 109 257 109"></polygon>
                <polygon id="Fill-569" fill="#517CFE" points="305 56 338 56 338 4 305 4"></polygon>
                <polygon id="Fill-573" fill="#517CFE" points="319 247 339 247 339 227 319 227"></polygon>
                <polygon id="Fill-577" fill="#517CFE" points="193 180 242 180 242 157 193 157"></polygon>
                <polygon id="Fill-581" fill="#517CFE" points="193 206 242 206 242 183 193 183"></polygon>
                <polygon id="Fill-585" fill="#517CFE" points="288 154 316 154 316 109 288 109"></polygon>
                <polygon id="Fill-589" fill="#517CFE" points="4 170 76 170 76 144 4 144"></polygon>
                <polygon id="Fill-593" fill="#517CFE" points="4 254 76 254 76 229 4 229"></polygon>
                <polygon id="Fill-609" fill="#517CFE" points="193 154 222 154 222 109 193 109"></polygon>
                <polygon id="Fill-613" fill="#517CFE" points="4 141 76 141 76 116 4 116"></polygon>
                <polygon id="Fill-617" fill="#517CFE" points="4 281 76 281 76 257 4 257"></polygon>
                <polygon id="Fill-621" fill="#517CFE" points="245 106 277 106 277 59 245 59"></polygon>
                <polygon id="Fill-625" fill="#517CFE" points="361 272 366 272 366 250 361 250"></polygon>
                <polygon id="Fill-629" fill="#517CFE" points="245 281 282 281 282 263 245 263"></polygon>
                <polygon id="Fill-633" fill="#517CFE" points="79 187 135 187 135 158 79 158"></polygon>
                <polygon id="Fill-637" fill="#517CFE" points="327 194 348 194 348 157 327 157"></polygon>
                <polygon id="Fill-641" fill="#517CFE" points="285 262 316 262 316 247 285 247"></polygon>
                <polygon id="Fill-649" fill="#517CFE" points="335 224 354 224 354 197 335 197"></polygon>
                <polygon id="Fill-657" fill="#517CFE" points="4 113 76 113 76 88 4 88"></polygon>
                <polygon id="Fill-661" fill="#517CFE" points="338 272 358 272 358 261 338 261"></polygon>
                <polygon id="Fill-665" fill="#517CFE" points="319 154 347 154 347 109 319 109"></polygon>
                <polygon id="Fill-669" fill="#517CFE" points="319 281 335 281 335 270 319 270"></polygon>
                <polygon id="Fill-677" fill="#517CFE" points="345 106 376 106 376 59 345 59"></polygon>
                <polygon id="Fill-681" fill="#517CFE" points="341 56 376 56 376 4 341 4"></polygon>
                <polygon id="Fill-685" fill="#517CFE" points="350 154 376 154 376 109 350 109"></polygon>
                <polygon id="Fill-689" fill="#517CFE" points="245 214 282 214 282 197 245 197"></polygon>
                <polygon id="Fill-693" fill="#517CFE" points="193 281 242 281 242 260 193 260"></polygon>
                <polygon id="Fill-697" fill="#517CFE" points="285 224 307 224 307 197 285 197"></polygon>
                <polygon id="Fill-701" fill="#517CFE" points="338 281 358 281 358 275 338 275"></polygon>
                <polygon id="Fill-705" fill="#517CFE" points="79 219 135 219 135 190 79 190"></polygon>
                <polygon id="Fill-713" fill="#517CFE" points="270 56 302 56 302 4 270 4"></polygon>
                <polygon id="Fill-721" fill="#517CFE" points="157 56 192 56 192 4 157 4"></polygon>
                <polygon id="Fill-733" fill="#517CFE" points="79 155 135 155 135 125 79 125"></polygon>
                <polygon id="Fill-737" fill="#517CFE" points="301 194 324 194 324 157 301 157"></polygon>
                <polygon id="Fill-765" fill="#517CFE" points="285 281 316 281 316 265 285 265"></polygon>
                <polygon id="Fill-769" fill="#517CFE" points="175 106 207 106 207 59 175 59"></polygon>
                <polygon id="Fill-521" fill="#FE5E83" points="4 56 76 56 76 4 4 4"></polygon>
                <polygon id="Fill-553" fill="#FE5E83" points="319 267 335 267 335 250 319 250"></polygon>
                <polygon id="Fill-557" fill="#FE5E83" points="79 281 135 281 135 253 79 253"></polygon>
                <polygon id="Fill-561" fill="#FE5E83" points="338 258 358 258 358 250 338 250"></polygon>
                <polygon id="Fill-597" fill="#FE5E83" points="315 106 342 106 342 59 315 59"></polygon>
                <polygon id="Fill-601" fill="#FE5E83" points="79 89 135 89 135 59 79 59"></polygon>
                <polygon id="Fill-653" fill="#FE5E83" points="357 224 376 224 376 197 357 197"></polygon>
                <polygon id="Fill-709" fill="#FE5E83" points="118 56 154 56 154 4 118 4"></polygon>
                <polygon id="Fill-725" fill="#FE5E83" points="351 194 376 194 376 157 351 157"></polygon>
                <polygon id="Fill-729" fill="#FE5E83" points="245 237 282 237 282 217 245 217"></polygon>
                <polygon id="Fill-745" fill="#FE5E83" points="272 194 298 194 298 157 272 157"></polygon>
                <polygon id="Fill-757" fill="#FE5E83" points="193 257 242 257 242 235 193 235"></polygon>
                <polygon id="Fill-605" fill="#FE5E83" points="4 226 76 226 76 201 4 201"></polygon>
                <polygon id="Fill-529" fill="#FE5E83" points="245 260 282 260 282 240 245 240"></polygon>
                <polygon id="Fill-717" fill="#FE5E83" points="245 194 269 194 269 157 245 157"></polygon>
                <polygon id="Fill-753" fill="#FE5E83" points="361 281 376 281 376 275 361 275"></polygon>
                <polygon id="Fill-453" fill="#517CFE" points="397 442 585 442 585 337 397 337"></polygon>
                <polygon id="Fill-457" fill="#517CFE" points="588 548 665 548 665 337 588 337"></polygon>
                <polygon id="Fill-461" fill="#517CFE" points="397 548 585 548 585 445 397 445"></polygon>
                <polygon id="Fill-1" fill="#FE5E83" points="685 484 826 484 826 414 685 414"></polygon>
                <polygon id="Fill-5" fill="#FE5E83" points="895 472 950 472 950 337 895 337"></polygon>
                <polygon id="Fill-9" fill="#FE5E83" points="685 548 826 548 826 487 685 487"></polygon>
                <polygon id="Fill-13" fill="#FE5E83" points="829 472 892 472 892 337 829 337"></polygon>
                <polygon id="Fill-17" fill="#FE5E83" points="899 548 950 548 950 475 899 475"></polygon>
                <polygon id="Fill-21" fill="#FE5E83" points="685 411 826 411 826 337 685 337"></polygon>
                <polygon id="Fill-25" fill="#FE5E83" points="829 548 896 548 896 475 829 475"></polygon>
                <path d="M150.875,151 L151.275,147.25 L153.375,147.25 L153.8,151 L156.075,151 L153.9,134.325 L150.9,134.325 L148.625,151 L150.875,151 Z M153.125,145.075 L151.525,145.075 L152.325,137.35 L153.125,145.075 Z M161.05,151 L161.05,136.5 L163.325,136.5 L163.325,134.325 L156.55,134.325 L156.55,136.5 L158.725,136.5 L158.725,151 L161.05,151 Z M168.175,151 L168.175,136.5 L170.45,136.5 L170.45,134.325 L163.675,134.325 L163.675,136.5 L165.85,136.5 L165.85,151 L168.175,151 Z M173.95,151 L173.95,143.925 C174.3,143.9 174.375,143.9 174.775,143.825 L176.125,151 L178.625,151 L177,143.025 C177.975,141.8 178.175,141.075 178.175,138.975 C178.175,137.575 177.975,136.65 177.525,135.85 C176.875,134.7 175.975,134.325 173.9,134.325 L171.625,134.325 L171.625,151 L173.95,151 Z M174.275,141.575 L173.95,141.575 L173.95,136.5 L174.275,136.5 C175.525,136.5 175.9,136.95 175.9,138.525 L175.899081,138.97527 C175.893629,140.144252 175.861842,140.442105 175.75,140.8 C175.575,141.325 175.125,141.575 174.275,141.575 Z M182.25,151 L182.65,147.25 L184.75,147.25 L185.175,151 L187.45,151 L185.275,134.325 L182.275,134.325 L180,151 L182.25,151 Z M184.5,145.075 L182.9,145.075 L183.7,137.35 L184.5,145.075 Z M192.425,151 L192.425,136.5 L194.7,136.5 L194.7,134.325 L187.925,134.325 L187.925,136.5 L190.1,136.5 L190.1,151 L192.425,151 Z M199.55,151 L199.55,136.5 L201.825,136.5 L201.825,134.325 L195.05,134.325 L195.05,136.5 L197.225,136.5 L197.225,151 L199.55,151 Z M205.325,151 L205.325,134.325 L203,134.325 L203,151 L205.325,151 Z M211.475,151 L213.9,134.325 L211.675,134.325 L210.35,144.475 L208.95,134.325 L206.65,134.325 L209.175,151 L211.475,151 Z M217.55,151 L217.55,134.325 L215.225,134.325 L215.225,151 L217.55,151 Z M223.225,151 L223.225,136.5 L225.5,136.5 L225.5,134.325 L218.725,134.325 L218.725,136.5 L220.9,136.5 L220.9,151 L223.225,151 Z M230.75,133 L229.625,131.125 L227.2,131.125 L229,133 L230.75,133 Z M228.175,151 L228.575,147.25 L230.675,147.25 L231.1,151 L233.375,151 L231.2,134.325 L228.2,134.325 L225.925,151 L228.175,151 Z M230.425,145.075 L228.825,145.075 L229.625,137.35 L230.425,145.075 Z" id="ATTRATTIVITÀ" fill="#000000" fill-rule="nonzero"></path>
                <path d="M489.075,451.25 C491.35,451.25 492.45,449.8 492.45,446.825 C492.45,446.375 492.425,445.975 492.4,445.075 L490.075,445.075 C490.1,445.9 490.125,446.3 490.125,446.85 C490.125,448.575 489.875,449.075 489.075,449.075 C488.325,449.075 488.125,448.7 488.125,447.25 L488.125,438.075 C488.125,436.625 488.325,436.25 489.075,436.25 C489.9,436.25 490.125,436.75 490.125,438.6 L490.124219,438.871094 C490.121875,439.121875 490.1125,439.3375 490.075,439.75 L492.4,439.75 C492.438889,439.244444 492.447531,438.965741 492.449451,438.678635 L492.45,438.425 L492.45,438.425 C492.45,435.525 491.325,434.075 489.075,434.075 C486.9,434.075 485.8,435.425 485.8,438.075 L485.8,447.25 C485.8,449.9 486.9,451.25 489.075,451.25 Z M497.625,451.25 C498.8,451.25 499.85,450.725 500.4,449.875 C500.85,449.15 500.925,448.75 500.925,446.75 L500.925,438.55 C500.925,436.575 500.85,436.15 500.4,435.425 C499.85,434.6 498.8,434.075 497.625,434.075 C496.45,434.075 495.4,434.6 494.85,435.425 C494.4,436.15 494.325,436.575 494.325,438.55 L494.325,446.75 C494.325,448.725 494.4,449.15 494.85,449.875 C495.4,450.725 496.45,451.25 497.625,451.25 Z M497.625,449.075 C496.925,449.075 496.65,448.675 496.65,447.725 L496.65,437.6 C496.65,436.65 496.95,436.25 497.625,436.25 C498.325,436.25 498.6,436.65 498.6,437.6 L498.6,447.725 C498.6,448.675 498.3,449.075 497.625,449.075 Z M504.825,451 L504.825,439.225 L506.775,451 L507.775,451 L509.725,439.225 L509.725,451 L511.725,451 L511.725,434.325 L508.925,434.325 L507.275,442.625 L505.625,434.325 L502.875,434.325 L502.875,451 L504.825,451 Z M516.05,451 L516.05,444.225 L516.375,444.225 C517.775,444.225 518.8,443.85 519.4,443.15 C520.1,442.375 520.275,441.525 520.275,439.225 C520.275,437.375 520.125,436.65 519.625,435.775 C518.925,434.625 518.15,434.325 515.925,434.325 L513.725,434.325 L513.725,451 L516.05,451 Z M516.375,442.075 L516.05,442.075 L516.05,436.5 L516.375,436.5 C517.225,436.5 517.7,436.75 517.875,437.3 C517.95,437.575 518.025,438.45 518.025,439.275 C518.025,440.125 517.95,441 517.875,441.275 C517.7,441.825 517.225,442.075 516.375,442.075 Z M527.775,451 L527.775,448.825 L524.275,448.825 L524.275,443.35 L526.575,443.35 L526.575,441.175 L524.275,441.175 L524.275,436.5 L527.575,436.5 L527.575,434.325 L521.95,434.325 L521.95,451 L527.775,451 Z M532.975,451 L532.975,436.5 L535.25,436.5 L535.25,434.325 L528.475,434.325 L528.475,436.5 L530.65,436.5 L530.65,451 L532.975,451 Z M538.75,451 L538.75,434.325 L536.425,434.325 L536.425,451 L538.75,451 Z M546.9,451 L546.9,448.825 L542.75,448.825 L546.9,436.5 L546.9,434.325 L540.9,434.325 L540.9,436.5 L544.575,436.5 L540.425,448.825 L540.425,451 L546.9,451 Z M550.9,451 L550.9,434.325 L548.575,434.325 L548.575,451 L550.9,451 Z M556.175,451.25 C557.35,451.25 558.4,450.725 558.95,449.875 C559.4,449.15 559.475,448.75 559.475,446.75 L559.475,438.55 C559.475,436.575 559.4,436.15 558.95,435.425 C558.4,434.6 557.35,434.075 556.175,434.075 C555,434.075 553.95,434.6 553.4,435.425 C552.95,436.15 552.875,436.575 552.875,438.55 L552.875,446.75 C552.875,448.725 552.95,449.15 553.4,449.875 C553.95,450.725 555,451.25 556.175,451.25 Z M556.175,449.075 C555.475,449.075 555.2,448.675 555.2,447.725 L555.2,437.6 C555.2,436.65 555.5,436.25 556.175,436.25 C556.875,436.25 557.15,436.65 557.15,437.6 L557.15,447.725 C557.15,448.675 556.85,449.075 556.175,449.075 Z M563.75,451 L563.75,442.25 L566.5,451 L568.825,451 L568.825,434.325 L566.5,434.325 L566.5,444.15 L563.425,434.325 L561.425,434.325 L561.425,451 L563.75,451 Z M576.65,451 L576.65,448.825 L573.15,448.825 L573.15,443.35 L575.45,443.35 L575.45,441.175 L573.15,441.175 L573.15,436.5 L576.45,436.5 L576.45,434.325 L570.825,434.325 L570.825,451 L576.65,451 Z" id="COMPETIZIONE" fill="#000000" fill-rule="nonzero"></path>
                <path d="M787.1375,451.25 C789.2875,451.25 790.5125,450 790.5125,447.775 C790.5125,446.35 789.9125,444.65 788.8375,443.075 L787.6625,441.375 C786.1125,439.05 786.0125,438.825 786.0125,437.8 C786.0125,436.8 786.3625,436.25 786.9875,436.25 C787.5125,436.25 787.8875,436.625 787.9625,437.3 C788.0125,437.65 788.0375,437.95 788.0375,438.8 L790.3125,438.575 L790.312296,438.140673 C790.31077,437.17474 790.297794,437.051471 790.1875,436.5 C789.8625,434.975 788.7125,434.075 787.1375,434.075 C785.0625,434.075 783.7125,435.475 783.7125,437.675 C783.7125,439.15 784.1625,440.3 785.6125,442.45 L786.7625,444.15 C787.9125,445.675 788.1875,446.325 788.1875,447.425 C788.1875,448.5 787.8375,449.075 787.1375,449.075 C786.2125,449.075 785.9375,448.525 785.9375,446.75 L785.9375,446.075 L783.6375,446.175 C783.6125,446.575 783.6125,446.725 783.6125,447.075 C783.6125,448.525 783.7875,449.225 784.3375,449.975 C784.9875,450.85 785.8625,451.25 787.1375,451.25 Z M794.4125,451 L794.4125,434.325 L792.0875,434.325 L792.0875,451 L794.4125,451 Z M799.6625,451.25 C801.9375,451.25 803.0375,449.8 803.0375,446.825 C803.0375,446.375 803.0125,445.975 802.9875,445.075 L800.6625,445.075 C800.6875,445.9 800.7125,446.3 800.7125,446.85 C800.7125,448.575 800.4625,449.075 799.6625,449.075 C798.9125,449.075 798.7125,448.7 798.7125,447.25 L798.7125,438.075 C798.7125,436.625 798.9125,436.25 799.6625,436.25 C800.4875,436.25 800.7125,436.75 800.7125,438.6 C800.7125,439 800.7125,439.2 800.6625,439.75 L802.9875,439.75 C803.0375,439.1 803.0375,438.825 803.0375,438.425 C803.0375,435.525 801.9125,434.075 799.6625,434.075 C797.4875,434.075 796.3875,435.425 796.3875,438.075 L796.3875,447.25 C796.3875,449.9 797.4875,451.25 799.6625,451.25 Z M808.2125,451.25 C809.3875,451.25 810.4375,450.725 810.9875,449.9 C811.417935,449.206522 811.505269,448.787524 811.51205,447.023971 L811.5125,434.325 L809.1875,434.325 L809.1875,447.725 C809.1875,448.675 808.9125,449.075 808.2125,449.075 C807.5375,449.075 807.2375,448.675 807.2375,447.725 L807.2375,434.325 L804.9125,434.325 L804.9125,446.775 C804.9125,448.75 804.9875,449.175 805.4375,449.9 C805.9875,450.725 807.0375,451.25 808.2125,451.25 Z M815.8375,451 L815.8375,443.925 C816.1875,443.9 816.2625,443.9 816.6625,443.825 L818.0125,451 L820.5125,451 L818.8875,443.025 C819.8625,441.8 820.0625,441.075 820.0625,438.975 C820.0625,437.575 819.8625,436.65 819.4125,435.85 C818.7625,434.7 817.8625,434.325 815.7875,434.325 L813.5125,434.325 L813.5125,451 L815.8375,451 Z M816.1625,441.575 L815.8375,441.575 L815.8375,436.5 L816.1625,436.5 C817.4125,436.5 817.7875,436.95 817.7875,438.525 C817.7875,440.075 817.7625,440.4 817.6375,440.8 C817.4625,441.325 817.0125,441.575 816.1625,441.575 Z M828.0375,451 L828.0375,448.825 L824.5375,448.825 L824.5375,443.35 L826.8375,443.35 L826.8375,441.175 L824.5375,441.175 L824.5375,436.5 L827.8375,436.5 L827.8375,434.325 L822.2125,434.325 L822.2125,451 L828.0375,451 Z M835.7125,451 L835.7125,448.825 L831.5625,448.825 L835.7125,436.5 L835.7125,434.325 L829.7125,434.325 L829.7125,436.5 L833.3875,436.5 L829.2375,448.825 L829.2375,451 L835.7125,451 Z M843.5375,451 L843.5375,448.825 L839.3875,448.825 L843.5375,436.5 L843.5375,434.325 L837.5375,434.325 L837.5375,436.5 L841.2125,436.5 L837.0625,448.825 L837.0625,451 L843.5375,451 Z M847.1375,451 L847.5375,447.25 L849.6375,447.25 L850.0625,451 L852.3375,451 L850.1625,434.325 L847.1625,434.325 L844.8875,451 L847.1375,451 Z M849.3875,445.075 L847.7875,445.075 L848.5875,437.35 L849.3875,445.075 Z" id="SICUREZZA" fill="#000000" fill-rule="nonzero"></path>
                <path d="M788.7,169 L788.7,152.325 L786.375,152.325 L786.375,169 L788.7,169 Z M793.025,169 L793.025,160.25 L795.775,169 L798.1,169 L798.1,152.325 L795.775,152.325 L795.775,162.15 L792.7,152.325 L790.7,152.325 L790.7,169 L793.025,169 Z M802.425,169 L802.425,160.25 L805.175,169 L807.5,169 L807.5,152.325 L805.175,152.325 L805.175,162.15 L802.1,152.325 L800.1,152.325 L800.1,169 L802.425,169 Z M812.775,169.25 C813.95,169.25 815,168.725 815.55,167.875 C816,167.15 816.075,166.75 816.075,164.75 L816.075,156.55 C816.075,154.575 816,154.15 815.55,153.425 C815,152.6 813.95,152.075 812.775,152.075 C811.6,152.075 810.55,152.6 810,153.425 C809.569565,154.118478 809.482231,154.537476 809.47545,156.301029 L809.475,164.75 C809.475,166.725 809.55,167.15 810,167.875 C810.55,168.725 811.6,169.25 812.775,169.25 Z M812.775,167.075 C812.075,167.075 811.8,166.675 811.8,165.725 L811.8,155.6 C811.8,154.65 812.1,154.25 812.775,154.25 C813.475,154.25 813.75,154.65 813.75,155.6 L813.75,165.725 C813.75,166.675 813.45,167.075 812.775,167.075 Z M822.3,169 L824.725,152.325 L822.5,152.325 L821.175,162.475 L819.775,152.325 L817.475,152.325 L820,169 L822.3,169 Z M827.325,169 L827.725,165.25 L829.825,165.25 L830.25,169 L832.525,169 L830.35,152.325 L827.35,152.325 L825.075,169 L827.325,169 Z M829.575,163.075 L827.975,163.075 L828.775,155.35 L829.575,163.075 Z M840.35,169 L840.35,166.825 L836.2,166.825 L840.35,154.5 L840.35,152.325 L834.35,152.325 L834.35,154.5 L838.025,154.5 L833.875,166.825 L833.875,169 L840.35,169 Z M844.35,169 L844.35,152.325 L842.025,152.325 L842.025,169 L844.35,169 Z M849.625,169.25 C850.8,169.25 851.85,168.725 852.4,167.875 C852.85,167.15 852.925,166.75 852.925,164.75 L852.925,156.55 C852.925,154.575 852.85,154.15 852.4,153.425 C851.85,152.6 850.8,152.075 849.625,152.075 C848.45,152.075 847.4,152.6 846.85,153.425 C846.419565,154.118478 846.332231,154.537476 846.32545,156.301029 L846.325,164.75 C846.325,166.725 846.4,167.15 846.85,167.875 C847.4,168.725 848.45,169.25 849.625,169.25 Z M849.625,167.075 C848.925,167.075 848.65,166.675 848.65,165.725 L848.65,155.6 C848.65,154.65 848.95,154.25 849.625,154.25 C850.325,154.25 850.6,154.65 850.6,155.6 L850.6,165.725 C850.6,166.675 850.3,167.075 849.625,167.075 Z M857.2,169 L857.2,160.25 L859.95,169 L862.275,169 L862.275,152.325 L859.95,152.325 L859.95,162.15 L856.875,152.325 L854.875,152.325 L854.875,169 L857.2,169 Z M870.1,169 L870.1,166.825 L866.6,166.825 L866.6,161.35 L868.9,161.35 L868.9,159.175 L866.6,159.175 L866.6,154.5 L869.9,154.5 L869.9,152.325 L864.275,152.325 L864.275,169 L870.1,169 Z" id="INNOVAZIONE" fill="#000000" fill-rule="nonzero"></path>
                <path d="M510.125,169 L510.125,161.925 C510.475,161.9 510.55,161.9 510.95,161.825 L512.3,169 L514.8,169 L513.175,161.025 C514.15,159.8 514.35,159.075 514.35,156.975 C514.35,155.575 514.15,154.65 513.7,153.85 C513.05,152.7 512.15,152.325 510.075,152.325 L507.8,152.325 L507.8,169 L510.125,169 Z M510.45,159.575 L510.125,159.575 L510.125,154.5 L510.45,154.5 C511.7,154.5 512.075,154.95 512.075,156.525 L512.074081,156.97527 C512.068629,158.144252 512.036842,158.442105 511.925,158.8 C511.75,159.325 511.3,159.575 510.45,159.575 Z M518.825,169 L518.825,152.325 L516.5,152.325 L516.5,169 L518.825,169 Z M524.075,169.25 C526.35,169.25 527.45,167.8 527.45,164.825 C527.45,164.375 527.425,163.975 527.4,163.075 L525.075,163.075 C525.1,163.9 525.125,164.3 525.125,164.85 C525.125,166.575 524.875,167.075 524.075,167.075 C523.325,167.075 523.125,166.7 523.125,165.25 L523.125,156.075 C523.125,154.625 523.325,154.25 524.075,154.25 C524.9,154.25 525.125,154.75 525.125,156.6 C525.125,157 525.125,157.2 525.075,157.75 L527.4,157.75 C527.45,157.1 527.45,156.825 527.45,156.425 C527.45,153.525 526.325,152.075 524.075,152.075 C521.9,152.075 520.8,153.425 520.8,156.075 L520.8,165.25 C520.8,167.9 521.9,169.25 524.075,169.25 Z M532.575,169.25 C534.85,169.25 535.95,167.8 535.95,164.825 C535.95,164.375 535.925,163.975 535.9,163.075 L533.575,163.075 C533.6,163.9 533.625,164.3 533.625,164.85 C533.625,166.575 533.375,167.075 532.575,167.075 C531.825,167.075 531.625,166.7 531.625,165.25 L531.625,156.075 C531.625,154.625 531.825,154.25 532.575,154.25 C533.4,154.25 533.625,154.75 533.625,156.6 C533.625,157 533.625,157.2 533.575,157.75 L535.9,157.75 C535.95,157.1 535.95,156.825 535.95,156.425 C535.95,153.525 534.825,152.075 532.575,152.075 C530.4,152.075 529.3,153.425 529.3,156.075 L529.3,165.25 C529.3,167.9 530.4,169.25 532.575,169.25 Z M540.175,169 L540.175,161.35 L542.075,161.35 L542.075,169 L544.4,169 L544.4,152.325 L542.075,152.325 L542.075,159.175 L540.175,159.175 L540.175,152.325 L537.85,152.325 L537.85,169 L540.175,169 Z M552.225,169 L552.225,166.825 L548.725,166.825 L548.725,161.35 L551.025,161.35 L551.025,159.175 L548.725,159.175 L548.725,154.5 L552.025,154.5 L552.025,152.325 L546.4,152.325 L546.4,169 L552.225,169 Z M559.9,169 L559.9,166.825 L555.75,166.825 L559.9,154.5 L559.9,152.325 L553.9,152.325 L553.9,154.5 L557.575,154.5 L553.425,166.825 L553.425,169 L559.9,169 Z M567.725,169 L567.725,166.825 L563.575,166.825 L567.725,154.5 L567.725,152.325 L561.725,152.325 L561.725,154.5 L565.4,154.5 L561.25,166.825 L561.25,169 L567.725,169 Z M571.325,169 L571.725,165.25 L573.825,165.25 L574.25,169 L576.525,169 L574.35,152.325 L571.35,152.325 L569.075,169 L571.325,169 Z M573.575,163.075 L571.975,163.075 L572.775,155.35 L573.575,163.075 Z" id="RICCHEZZA" fill="#000000" fill-rule="nonzero"></path>
            </g>
        </g>
    </g>
</svg>